<svg width="266" height="71" viewBox="0 0 266 71" fill="none" xmlns="http://www.w3.org/2000/svg">
<path d="M226.389 40.5381H227.974V44.4733H226.389V40.5381ZM227.974 48.1966H226.389V70.2479H227.974V48.1966Z" fill="white"/>
<path d="M219.629 59.1999V61.8962C219.629 63.8269 218.862 65.6785 217.497 67.0438C216.131 68.409 214.28 69.176 212.349 69.176C210.418 69.176 208.567 68.409 207.201 67.0438C205.836 65.6785 205.069 63.8269 205.069 61.8962V49.7824H220.412V48.1968H205.069V43.4912H203.49V48.1968H201.68V49.7824H203.49V61.8962C203.49 64.2457 204.423 66.499 206.085 68.1604C207.746 69.8218 209.999 70.7552 212.349 70.7552C214.699 70.7552 216.952 69.8218 218.613 68.1604C220.275 66.499 221.208 64.2457 221.208 61.8962V59.1999H219.629Z" fill="white"/>
<path d="M196.294 59.2897C196.294 64.7206 192.057 69.1758 186.876 69.1758C181.696 69.1758 177.459 64.7206 177.459 59.2897C177.459 53.8587 181.696 49.2687 186.876 49.2687C192.057 49.2687 196.294 53.7624 196.294 59.2897ZM197.879 70.2479V48.1966H196.294V53.5506C195.426 51.7897 194.086 50.3049 192.423 49.2619C190.76 48.219 188.839 47.659 186.876 47.6445C180.797 47.6445 175.873 52.8637 175.873 59.2897C175.873 65.7157 180.797 70.7615 186.876 70.7615C188.83 70.7541 190.744 70.2063 192.406 69.1787C194.068 68.1511 195.414 66.6837 196.294 64.9389V70.2479H197.879Z" fill="white"/>
<path d="M171.554 58.4747H173.133V57.0625C173.133 51.5416 169.326 47.6449 163.889 47.6449C162.336 47.6131 160.803 47.9968 159.449 48.7564C158.094 49.516 156.968 50.6239 156.185 51.9653V48.197H154.6V70.2483H156.217V57.0625C156.217 52.5238 159.466 49.2691 163.921 49.2691C168.498 49.2691 171.586 52.3954 171.586 57.0625L171.554 58.4747Z" fill="white"/>
<path d="M148.65 57.6142H130.11C130.842 52.8637 134.693 49.2687 139.361 49.2687C144.028 49.2687 147.879 52.8637 148.65 57.6142ZM139.361 47.6445C133.281 47.6445 128.357 52.8637 128.357 59.2897C128.33 60.7858 128.601 62.2725 129.155 63.6627C129.708 65.053 130.533 66.3191 131.581 67.387C132.63 68.455 133.88 69.3034 135.26 69.8828C136.64 70.4622 138.121 70.7609 139.617 70.7615C144.798 70.7615 148.348 68.1487 149.889 63.3982H148.22C147.154 66.3063 144.798 69.1758 139.617 69.1758C134.263 69.1758 129.988 64.9389 129.943 59.1998H150.364C150.447 53.634 145.953 47.6445 139.361 47.6445Z" fill="white"/>
<path d="M125.321 61.8962V59.1999H123.736V61.8962C123.736 63.8269 122.969 65.6785 121.604 67.0438C120.238 68.409 118.387 69.176 116.456 69.176C114.525 69.176 112.674 68.409 111.308 67.0438C109.943 65.6785 109.176 63.8269 109.176 61.8962V49.7824H124.551V48.1968H109.176V43.4912H107.597V48.1968H105.793V49.7824H107.597V61.8962C107.565 63.08 107.771 64.2583 108.202 65.3614C108.633 66.4645 109.28 67.47 110.107 68.3186C110.933 69.1672 111.92 69.8417 113.011 70.3023C114.102 70.7629 115.275 71.0001 116.459 71.0001C117.643 71.0001 118.816 70.7629 119.907 70.3023C120.998 69.8417 121.986 69.1672 122.812 68.3186C123.638 67.47 124.285 66.4645 124.717 65.3614C125.148 64.2583 125.353 63.08 125.321 61.8962Z" fill="white"/>
<path d="M102.976 61.8962V59.1999H101.39V61.8962C101.39 63.8269 100.623 65.6785 99.2578 67.0438C97.8926 68.409 96.0409 69.176 94.1102 69.176C92.1795 69.176 90.3278 68.409 88.9626 67.0438C87.5974 65.6785 86.8304 63.8269 86.8304 61.8962V49.7824H102.205V48.1968H86.8304V43.4912H85.2512V48.1968H83.4473V49.7824H85.2512V61.8962C85.2193 63.08 85.425 64.2583 85.856 65.3614C86.287 66.4645 86.9347 67.47 87.7608 68.3186C88.5869 69.1672 89.5746 69.8417 90.6657 70.3023C91.7568 70.7629 92.9291 71.0001 94.1134 71.0001C95.2977 71.0001 96.47 70.7629 97.5611 70.3023C98.6521 69.8417 99.6399 69.1672 100.466 68.3186C101.292 67.47 101.94 66.4645 102.371 65.3614C102.802 64.2583 103.008 63.08 102.976 61.8962Z" fill="white"/>
<path d="M77.6292 40.5381H79.1827V44.4733H77.6035L77.6292 40.5381ZM77.6292 70.2479H79.1827V48.1966H77.6035L77.6292 70.2479Z" fill="white"/>
<path d="M71.0349 38.394H69.4492V70.248H71.0349V38.394Z" fill="white"/>
<path d="M62.4276 70.2483H64.0132V55.0082H49.9286V56.5874H62.389C61.7471 64.0406 56.6499 69.1762 49.6333 69.1762C42.392 69.1762 36.531 62.9685 36.531 55.265C36.531 47.5615 42.392 41.3923 49.6333 41.3923C52.2658 41.3188 54.8535 42.0838 57.0228 43.577C59.1921 45.0701 60.8308 47.214 61.7021 49.6992H63.4162C61.317 43.53 56.2198 39.8066 49.6333 39.8066C41.5382 39.8066 34.9453 46.7462 34.9453 55.265C34.9453 63.7838 41.5382 70.7619 49.6333 70.7619C52.3954 70.831 55.1105 70.0396 57.4028 68.4972C59.6951 66.9548 61.4511 64.7378 62.4276 62.1532V70.2483Z" fill="white"/>
<path d="M196.423 14.6865C196.423 23.1604 190.536 27.6926 184.45 27.6926C178.364 27.6926 172.478 23.1604 172.478 14.6865C172.478 6.21266 178.364 1.64191 184.45 1.64191C190.536 1.64191 196.423 6.21266 196.423 14.6865ZM198.13 14.6865C198.13 5.26256 191.294 0.0883789 184.45 0.0883789C177.607 0.0883789 170.764 5.26256 170.764 14.6865C170.764 24.1105 177.607 29.2461 184.45 29.2461C191.294 29.2461 198.13 24.1105 198.13 14.6865Z" fill="white"/>
<path d="M45.8014 14.6865C45.8014 23.1604 39.9082 27.6926 33.8224 27.6926C27.7367 27.6926 21.8499 23.1604 21.8499 14.6865C21.8499 6.21266 27.7367 1.64191 33.8224 1.64191C39.9082 1.64191 45.8014 6.21266 45.8014 14.6865ZM47.509 14.6865C47.509 5.26256 40.6657 0.0883789 33.8224 0.0883789C26.9792 0.0883789 20.123 5.26256 20.123 14.6865C20.123 24.1105 26.9663 29.2461 33.8032 29.2461C40.64 29.2461 47.4897 24.1105 47.4897 14.6865" fill="white"/>
<path d="M15.6802 8.40169C15.6802 12.1443 12.8171 14.648 8.71498 14.648H1.83318V2.11693H8.71498C12.8171 2.11693 15.6802 4.62697 15.6802 8.40169ZM17.3814 8.40169C17.3814 3.9465 14.0047 0.569824 9.10656 0.569824H0.119141V28.7711H1.83318V16.2015H8.31695L15.1923 28.7711H17.1824L10.1209 16.0795C14.4541 15.6045 17.3557 12.4974 17.3557 8.37602" fill="white"/>
<path d="M66.1965 8.09973C66.2114 8.84062 66.0764 9.57687 65.7997 10.2643C65.523 10.9517 65.1103 11.5762 64.5863 12.1002C64.0623 12.6242 63.4378 13.0369 62.7504 13.3136C62.063 13.5903 61.3267 13.7253 60.5858 13.7104H53.5243V2.07816H59.2827C63.6544 2.07816 66.203 4.42771 66.203 8.1254L66.1965 8.09973ZM53.5564 15.1869H60.9132C64.3734 15.1869 67.1595 17.5301 67.1595 21.1122C67.1595 24.8099 64.4119 27.2365 60.1557 27.2365H53.55L53.5564 15.1869ZM67.9106 8.0227C67.9106 3.56751 64.7714 0.550293 59.3597 0.550293H51.8359V28.7708H60.1814C65.3556 28.7708 68.8543 25.6637 68.8543 21.2085C68.8588 19.6332 68.3425 18.1006 67.3859 16.8491C66.4292 15.5975 65.0858 14.6973 63.5645 14.2882C64.8579 13.8443 65.9757 12.999 66.7551 11.8755C67.5346 10.7519 67.9349 9.40886 67.8978 8.04194" fill="white"/>
<path d="M90.6989 28.7647V27.2176H76.0558V15.4056H89.4663V13.852H76.0558V2.11702H90.6989V0.563477H74.3867V28.7647H90.6989Z" fill="white"/>
<path d="M111.184 8.40169C111.184 12.1443 108.32 14.648 104.218 14.648H97.3365V2.11693H104.218C108.32 2.11693 111.184 4.62697 111.184 8.40169ZM112.891 8.40169C112.891 3.9465 109.508 0.569824 104.616 0.569824H95.6289V28.7711H97.3365V16.2015H103.82L110.702 28.7711H112.692L105.631 16.0795C109.97 15.6045 112.872 12.4974 112.872 8.37602" fill="white"/>
<path d="M135.965 2.11702V0.563477H114.049V2.11702H124.147V28.7647H125.861V2.11702H135.965Z" fill="white"/>
<path d="M165.911 8.40169C165.911 12.1443 163.048 14.648 158.953 14.648H152.071V2.11693H158.953C163.048 2.11693 165.911 4.62697 165.911 8.40169ZM167.626 8.40169C167.626 3.9465 164.242 0.569824 159.351 0.569824H150.363V28.7711H152.071V16.2015H158.555L165.436 28.7711H167.427L160.365 16.0795C164.705 15.6045 167.606 12.4974 167.606 8.37602" fill="white"/>
<path d="M219.322 6.97016C218.404 3.1184 215.624 0.0883789 210.335 0.0883789C205.758 0.0883789 201.7 3.29815 201.7 7.68915C201.7 11.5858 204.268 13.852 207.786 14.6865L212.601 15.842C216.023 16.6766 217.968 18.6666 217.968 21.6903C217.968 25.1119 215.143 27.7375 210.527 27.7375C208.454 27.803 206.434 27.0726 204.883 25.6963C203.331 24.3199 202.364 22.4019 202.182 20.3357L200.635 20.8557C201.11 25.3109 204.769 29.2461 210.495 29.2461C215.868 29.2461 219.605 25.9465 219.605 21.5426C219.605 17.4854 216.941 15.1808 212.845 14.1858L208.075 13.0302C205.051 12.3177 203.337 10.4046 203.337 7.54151C203.337 3.88234 206.836 1.57773 210.341 1.57773C214.636 1.61625 217.024 4.04284 217.781 7.46448L219.322 6.97016Z" fill="white"/>
<path d="M240.282 28.7647V27.2176H225.646V15.4056H239.05V13.852H225.646V2.11702H240.282V0.563477H223.977V28.7647H240.282Z" fill="white"/>
<path d="M265.884 28.7647V0.563477H264.17V26.1455L246.593 0.563477H244.32V28.7647H246.034V2.75256L263.971 28.7647H265.884Z" fill="white"/>
</svg>
