<svg width="114" height="13" viewBox="0 0 114 13" fill="none" xmlns="http://www.w3.org/2000/svg">
<path d="M114 11.9963V9.84266H108.834V7.12509H113.51V5.08719H108.834V2.40319H114V0.248933H106.503V11.9969H114V11.9963ZM105.062 3.04873C104.792 1.72351 103.678 0 100.774 0C98.512 0 96.6042 1.59038 96.6042 3.67806C96.6042 5.4508 97.8365 6.66022 99.7449 7.04118L101.416 7.37234C102.345 7.55471 102.868 8.08502 102.868 8.76413C102.868 9.5926 102.175 10.2057 100.926 10.2057C99.2381 10.2057 98.4111 9.16186 98.3096 8.00223L96.1487 8.56554C96.3346 10.2393 97.7356 12.2442 100.909 12.2442C103.695 12.2442 105.232 10.4211 105.232 8.61533C105.232 6.95839 104.067 5.5666 101.889 5.15264L100.217 4.8377C99.3396 4.67211 98.9178 4.15858 98.9178 3.51248C98.9178 2.73379 99.6605 2.02111 100.791 2.02111C102.311 2.02111 102.851 3.03139 102.969 3.67806L105.062 3.04873ZM90.227 12.2615C92.7931 12.2615 94.836 10.7204 94.836 7.8372V0.248933H92.5064V7.67218C92.5064 9.21333 91.6452 10.025 90.227 10.025C88.8425 10.025 87.9647 9.21333 87.9647 7.67218V0.248933H85.6345V7.83776C85.6345 10.7209 87.6774 12.2615 90.227 12.2615ZM71.7755 6.13103C71.7755 9.90866 74.6797 12.2453 77.9213 12.2453C81.1794 12.2453 84.0835 9.90866 84.0835 6.13103C84.0835 2.33662 81.1794 0.0005594 77.9213 0.0005594C74.6791 0.0005594 71.7755 2.33662 71.7755 6.13103ZM74.1901 6.11425C74.1901 3.46325 76.0807 2.20404 77.9213 2.20404C79.7783 2.20404 81.669 3.46325 81.669 6.11425C81.669 8.76581 79.7783 10.025 77.9213 10.025C76.0807 10.025 74.1901 8.76525 74.1901 6.11425ZM70.1932 11.9963V0.248933H67.8465V4.97083H62.6299V0.248933H60.2997V11.9969H62.6299V7.12565H67.8465V11.9969H70.1932V11.9963ZM52.2622 5.50115V2.23704H54.1529C55.3345 2.23704 56.0264 2.88315 56.0264 3.87721C56.0264 4.83826 55.3345 5.50115 54.1529 5.50115H52.2622ZM55.8241 11.9963H58.4239L55.8577 7.1911C57.4281 6.74358 58.4073 5.50115 58.4073 3.86042C58.4073 1.82253 56.9213 0.248374 54.5918 0.248374H49.9149V11.9963H52.2616V7.47303H53.4774L55.8241 11.9963ZM47.7814 11.9963V9.84266H42.6149V7.12509H47.2918V5.08719H42.6149V2.40319H47.7814V0.248933H40.2848V11.9969H47.7814V11.9963ZM34.4115 8.36808L31.7439 0.248933H29.3299L26.6794 8.33507L24.4838 0.248933H22.0191L25.3451 11.9969H27.7761L30.511 3.62883L33.2458 11.9963H35.6432L38.9532 0.248933H36.5723L34.4115 8.36808ZM9.33318 6.13103C9.33318 9.90866 12.2373 12.2453 15.4784 12.2453C18.737 12.2453 21.6412 9.90866 21.6412 6.13103C21.6412 2.33662 18.737 0.0005594 15.4784 0.0005594C12.2368 0.0005594 9.33318 2.33662 9.33318 6.13103ZM11.7471 6.11425C11.7471 3.46325 13.6378 2.20404 15.4784 2.20404C17.3354 2.20404 19.2261 3.46325 19.2261 6.11425C19.2261 8.76581 17.3354 10.025 15.4784 10.025C13.6384 10.025 11.7471 8.76525 11.7471 6.11425ZM4.47393 7.57261C6.83772 7.57261 8.40807 6.04824 8.40807 3.91077C8.40807 1.79008 6.83772 0.248933 4.47393 0.248933H0V11.9969H2.33016V7.57261H4.47393ZM2.34669 5.60072V2.23704H4.18722C5.3523 2.23704 6.06138 2.88315 6.06138 3.92699C6.06138 4.93783 5.3523 5.60072 4.18722 5.60072H2.34669Z" fill="black"/>
</svg>
