<svg xmlns="http://www.w3.org/2000/svg" viewBox="0 0 30 30"><path d="M12.1 20.5C12 20 11.9 19.4 11.9 18.7 11.9 17.8 12.1 16.8 12.6 15.8 13 14.8 13.8 13.8 15 13L17.1 11.4C17.6 11 18 10.6 18.2 10.1 18.5 9.6 18.6 9.1 18.6 8.5 18.6 7.8 18.3 7 17.7 6.4 17.1 5.7 16.1 5.4 14.9 5.4 14.3 5.4 13.8 5.5 13.3 5.7 12.9 5.9 12.5 6.2 12.1 6.6 11.8 7 11.6 7.4 11.4 7.8 11.2 8.3 11.2 8.7 11.2 9.2 11.2 9.7 11.2 10 11.2 10.3 11.2 10.5 11.3 10.7 11.3 10.7L5.6 10.5C5.5 10.2 5.5 10 5.4 9.7 5.4 9.4 5.4 9.1 5.4 8.8 5.4 7.6 5.6 6.5 6.1 5.4 6.5 4.4 7.1 3.4 7.9 2.6 8.8 1.8 9.7 1.2 10.9 0.7 12.1 0.2 13.4 0 14.9 0 16.6 0 18 0.2 19.3 0.7 20.5 1.1 21.6 1.7 22.4 2.5 23.2 3.3 23.8 4.1 24.2 5.1 24.7 6.1 24.9 7 24.9 8.1 24.9 9.7 24.5 11.1 23.8 12.3 23.1 13.4 22.1 14.5 20.9 15.4L19.3 16.6C18.6 17.1 18 17.7 17.6 18.2 17.2 18.8 16.9 19.6 16.9 20.5L12.1 20.5ZM11.1 26.5C11.1 25.5 11.5 24.7 12.1 24 12.8 23.3 13.7 22.9 14.6 22.9 15.6 22.9 16.5 23.3 17.2 24 17.8 24.7 18.2 25.5 18.2 26.5 18.2 27 18.1 27.4 17.9 27.9 17.7 28.3 17.5 28.6 17.2 29 16.8 29.3 16.5 29.5 16 29.7 15.6 29.9 15.1 30 14.6 30 14.1 30 13.7 29.9 13.3 29.7 12.8 29.5 12.5 29.3 12.1 29 11.8 28.6 11.6 28.3 11.4 27.9 11.2 27.4 11.1 27 11.1 26.5Z" fill="#333"/></svg>