<svg xmlns="http://www.w3.org/2000/svg" width="20" height="20" viewBox="0 0 20 20">
    <g id="Group_143" data-name="Group 143" transform="translate(-20 -1308)">
        <g id="Group_142" data-name="Group 142">
            <g id="Group_141" data-name="Group 141" transform="translate(20 1308)">
                <circle id="Ellipse_28" data-name="Ellipse 28" cx="10" cy="10" r="10" fill="black"/>
            </g>
        </g>
        <path id="iconmonstr-eye-9" d="M8.75,8.75A1.75,1.75,0,1,1,7,6.969,1.768,1.768,0,0,1,8.75,8.75ZM14,8.483S11.52,13.5,7.009,13.5C2.82,13.5,0,8.483,0,8.483S2.593,4,7.009,4C11.5,4,14,8.483,14,8.483ZM9.917,8.75A2.917,2.917,0,1,0,7,11.719,2.946,2.946,0,0,0,9.917,8.75Z" transform="translate(23 1309)" fill="white"/>
    </g>
</svg>